<?xml version="1.0" encoding="UTF-8"?>
<svg id="Camada_1" xmlns="http://www.w3.org/2000/svg" version="1.1" viewBox="0 0 569.89 110.28">
  <!-- Generator: Adobe Illustrator 29.3.1, SVG Export Plug-In . SVG Version: 2.1.0 Build 151)  -->
  <defs>
    <style>
      .st0 {
        fill: #6563ff;
      }

      .st1 {
        fill: #00a19a;
      }
    </style>
  </defs>
  <g>
    <path class="st1" d="M16.53,102.44c-3.99-1.82-7.15-4.3-9.48-7.44-2.33-3.14-3.57-6.65-3.72-10.52h13.72c.23,2.71,1.53,4.98,3.9,6.8,2.36,1.82,5.33,2.73,8.89,2.73s6.61-.72,8.66-2.15c2.05-1.43,3.08-3.27,3.08-5.52,0-2.4-1.14-4.19-3.43-5.35-2.29-1.16-5.91-2.44-10.87-3.84-4.81-1.32-8.72-2.6-11.74-3.84-3.02-1.24-5.64-3.14-7.85-5.7-2.21-2.56-3.31-5.93-3.31-10.12,0-3.41,1.01-6.53,3.02-9.36,2.01-2.83,4.9-5.06,8.66-6.69,3.76-1.63,8.08-2.44,12.96-2.44,7.28,0,13.16,1.84,17.61,5.52,4.46,3.68,6.84,8.7,7.15,15.06h-13.25c-.23-2.87-1.4-5.15-3.49-6.86-2.09-1.7-4.92-2.56-8.49-2.56s-6.16.66-8.02,1.98c-1.86,1.32-2.79,3.06-2.79,5.23,0,1.71.62,3.14,1.86,4.3,1.24,1.16,2.75,2.07,4.53,2.73,1.78.66,4.42,1.49,7.91,2.5,4.65,1.24,8.47,2.5,11.45,3.78,2.98,1.28,5.56,3.16,7.73,5.64,2.17,2.48,3.29,5.78,3.37,9.88,0,3.64-1.01,6.9-3.02,9.77-2.02,2.87-4.86,5.12-8.55,6.74-3.68,1.63-8,2.44-12.96,2.44s-9.55-.91-13.54-2.73Z"/>
    <path class="st1" d="M62.68,54.71c2.67-4.96,6.32-8.82,10.93-11.57,4.61-2.75,9.71-4.13,15.29-4.13,5.04,0,9.44.99,13.2,2.96,3.76,1.98,6.76,4.44,9.01,7.38v-9.3h13.37v64.06h-13.37v-9.53c-2.25,3.02-5.31,5.54-9.19,7.56-3.88,2.01-8.29,3.02-13.25,3.02-5.5,0-10.54-1.41-15.11-4.24-4.57-2.83-8.2-6.78-10.87-11.86-2.67-5.08-4.01-10.83-4.01-17.27s1.34-12.13,4.01-17.09ZM108.38,60.53c-1.82-3.26-4.21-5.74-7.15-7.44-2.95-1.7-6.12-2.56-9.53-2.56s-6.59.83-9.53,2.5c-2.95,1.67-5.33,4.11-7.15,7.32-1.82,3.22-2.73,7.03-2.73,11.45s.91,8.29,2.73,11.63c1.82,3.33,4.22,5.87,7.21,7.62,2.98,1.74,6.14,2.62,9.48,2.62s6.59-.85,9.53-2.56c2.94-1.7,5.33-4.2,7.15-7.5,1.82-3.29,2.73-7.15,2.73-11.57s-.91-8.25-2.73-11.51Z"/>
    <path class="st1" d="M194.12,40.06v64.06h-13.25v-7.56c-2.09,2.64-4.82,4.71-8.2,6.22-3.37,1.51-6.96,2.27-10.75,2.27-5.04,0-9.55-1.05-13.54-3.14-3.99-2.09-7.13-5.19-9.42-9.3-2.29-4.11-3.43-9.07-3.43-14.88v-37.67h13.14v35.69c0,5.74,1.43,10.13,4.3,13.2,2.87,3.06,6.78,4.59,11.74,4.59s8.89-1.53,11.8-4.59c2.91-3.06,4.36-7.46,4.36-13.2v-35.69h13.25ZM177.15,22.86l-25.69,12.67v-9.77l25.69-14.18v11.28Z"/>
    <path class="st1" d="M205.34,54.71c2.67-4.96,6.32-8.82,10.93-11.57,4.61-2.75,9.75-4.13,15.4-4.13,4.19,0,8.31.91,12.38,2.73,4.07,1.82,7.3,4.24,9.71,7.27v-30.93h13.37v86.04h-13.37v-9.65c-2.17,3.1-5.17,5.66-9.01,7.67s-8.24,3.02-13.2,3.02c-5.58,0-10.68-1.41-15.29-4.24-4.61-2.83-8.25-6.78-10.93-11.86-2.67-5.08-4.01-10.83-4.01-17.27s1.34-12.13,4.01-17.09ZM251.03,60.53c-1.82-3.26-4.21-5.74-7.15-7.44-2.95-1.7-6.12-2.56-9.53-2.56s-6.59.83-9.53,2.5c-2.95,1.67-5.33,4.11-7.15,7.32-1.82,3.22-2.73,7.03-2.73,11.45s.91,8.29,2.73,11.63c1.82,3.33,4.22,5.87,7.21,7.62,2.98,1.74,6.14,2.62,9.48,2.62s6.59-.85,9.53-2.56c2.94-1.7,5.33-4.2,7.15-7.5,1.82-3.29,2.73-7.15,2.73-11.57s-.91-8.25-2.73-11.51Z"/>
    <path class="st1" d="M337.01,77.04h-48.95c.39,5.12,2.29,9.23,5.7,12.32,3.41,3.1,7.6,4.65,12.56,4.65,7.13,0,12.17-2.98,15.12-8.95h14.3c-1.94,5.89-5.45,10.72-10.52,14.48-5.08,3.76-11.38,5.64-18.89,5.64-6.12,0-11.61-1.38-16.45-4.13-4.84-2.75-8.64-6.63-11.39-11.63-2.75-5-4.13-10.79-4.13-17.38s1.34-12.38,4.01-17.38c2.67-5,6.43-8.85,11.28-11.57,4.84-2.71,10.41-4.07,16.68-4.07s11.43,1.32,16.16,3.95c4.73,2.64,8.41,6.34,11.04,11.1,2.63,4.77,3.95,10.25,3.95,16.45,0,2.4-.16,4.57-.46,6.51ZM323.64,66.34c-.08-4.88-1.82-8.8-5.23-11.74-3.41-2.94-7.63-4.42-12.67-4.42-4.57,0-8.49,1.45-11.74,4.36-3.26,2.91-5.2,6.84-5.81,11.8h35.46Z"/>
  </g>
  <g>
    <path class="st0" d="M373.91,51.96h-10.7v48.37h-19.88v-48.37h-7.21v-16.51h7.21v-1.86c0-7.98,2.29-14.05,6.86-18.2,4.57-4.15,11.28-6.22,20.11-6.22,1.47,0,2.56.04,3.26.12v16.86c-3.8-.23-6.47.31-8.02,1.63-1.55,1.32-2.33,3.68-2.33,7.09v.58h10.7v16.51Z"/>
    <path class="st0" d="M397.28,14.29v86.04h-19.88V14.29h19.88Z"/>
    <path class="st0" d="M418.26,97.18c-5.08-2.71-9.07-6.59-11.98-11.63-2.91-5.04-4.36-10.93-4.36-17.67s1.47-12.54,4.42-17.61c2.94-5.08,6.98-8.97,12.09-11.68,5.12-2.71,10.85-4.07,17.21-4.07s12.09,1.36,17.21,4.07c5.12,2.71,9.15,6.61,12.09,11.68,2.94,5.08,4.42,10.95,4.42,17.61s-1.49,12.54-4.48,17.61c-2.98,5.08-7.05,8.97-12.21,11.68-5.16,2.71-10.91,4.07-17.26,4.07s-12.07-1.35-17.15-4.07ZM445.12,79.86c2.67-2.79,4.01-6.78,4.01-11.98s-1.3-9.19-3.89-11.98c-2.6-2.79-5.79-4.19-9.59-4.19s-7.09,1.38-9.65,4.13c-2.56,2.75-3.84,6.76-3.84,12.03s1.26,9.19,3.78,11.98c2.52,2.79,5.68,4.19,9.48,4.19s7.03-1.4,9.71-4.19Z"/>
    <path class="st0" d="M567.26,35.45l-17.56,64.88h-21.97l-10.23-42.09-10.58,42.09h-21.86l-17.67-64.88h19.88l9.18,46.39,10.93-46.39h21.04l11.04,46.16,9.07-46.16h18.72Z"/>
  </g>
</svg>